<mxfile host="Electron" agent="Mozilla/5.0 (Macintosh; Intel Mac OS X 10_15_7) AppleWebKit/537.36 (KHTML, like Gecko) draw.io/28.0.6 Chrome/138.0.7204.100 Electron/37.2.3 Safari/537.36" version="28.0.6">
  <diagram name="PÃ¡gina-1" id="qvVeooffO4AFxkoY5dn1">
    <mxGraphModel dx="894" dy="583" grid="1" gridSize="10" guides="1" tooltips="1" connect="1" arrows="1" fold="1" page="1" pageScale="1" pageWidth="827" pageHeight="1169" math="0" shadow="0">
      <root>
        <mxCell id="0" />
        <mxCell id="1" parent="0" />
        <mxCell id="UArxhUXp2m88e8XGttfS-2" value="" style="endArrow=classic;html=1;rounded=0;strokeWidth=2;" edge="1" parent="1">
          <mxGeometry width="50" height="50" relative="1" as="geometry">
            <mxPoint x="210" y="84.5" as="sourcePoint" />
            <mxPoint x="680" y="85" as="targetPoint" />
          </mxGeometry>
        </mxCell>
        <mxCell id="UArxhUXp2m88e8XGttfS-3" value="" style="endArrow=classic;html=1;rounded=0;strokeWidth=2;" edge="1" parent="1">
          <mxGeometry width="50" height="50" relative="1" as="geometry">
            <mxPoint x="210" y="184.5" as="sourcePoint" />
            <mxPoint x="690" y="185" as="targetPoint" />
          </mxGeometry>
        </mxCell>
        <mxCell id="UArxhUXp2m88e8XGttfS-4" value="P1" style="text;html=1;align=center;verticalAlign=middle;whiteSpace=wrap;rounded=0;fontSize=27;" vertex="1" parent="1">
          <mxGeometry x="130" y="70" width="60" height="30" as="geometry" />
        </mxCell>
        <mxCell id="UArxhUXp2m88e8XGttfS-7" value="P2" style="text;html=1;align=center;verticalAlign=middle;whiteSpace=wrap;rounded=0;fontSize=27;" vertex="1" parent="1">
          <mxGeometry x="130" y="170" width="60" height="30" as="geometry" />
        </mxCell>
        <mxCell id="UArxhUXp2m88e8XGttfS-12" value="" style="ellipse;whiteSpace=wrap;html=1;aspect=fixed;fillColor=#000000;" vertex="1" parent="1">
          <mxGeometry x="256" y="80" width="10" height="10" as="geometry" />
        </mxCell>
        <mxCell id="UArxhUXp2m88e8XGttfS-13" value="" style="ellipse;whiteSpace=wrap;html=1;aspect=fixed;fillColor=#000000;" vertex="1" parent="1">
          <mxGeometry x="316" y="80" width="10" height="10" as="geometry" />
        </mxCell>
        <mxCell id="UArxhUXp2m88e8XGttfS-14" value="" style="ellipse;whiteSpace=wrap;html=1;aspect=fixed;fillColor=#000000;" vertex="1" parent="1">
          <mxGeometry x="398" y="80" width="10" height="10" as="geometry" />
        </mxCell>
        <mxCell id="UArxhUXp2m88e8XGttfS-24" value="" style="ellipse;whiteSpace=wrap;html=1;aspect=fixed;fillColor=#000000;" vertex="1" parent="1">
          <mxGeometry x="284" y="180" width="10" height="10" as="geometry" />
        </mxCell>
        <mxCell id="UArxhUXp2m88e8XGttfS-26" value="" style="ellipse;whiteSpace=wrap;html=1;aspect=fixed;fillColor=#000000;" vertex="1" parent="1">
          <mxGeometry x="370" y="179" width="10" height="10" as="geometry" />
        </mxCell>
        <mxCell id="UArxhUXp2m88e8XGttfS-27" value="" style="endArrow=classic;html=1;rounded=0;strokeWidth=1;exitX=0.648;exitY=0.844;exitDx=0;exitDy=0;entryX=0;entryY=0;entryDx=0;entryDy=0;exitPerimeter=0;" edge="1" parent="1" source="UArxhUXp2m88e8XGttfS-13" target="UArxhUXp2m88e8XGttfS-26">
          <mxGeometry width="50" height="50" relative="1" as="geometry">
            <mxPoint x="516" y="120" as="sourcePoint" />
            <mxPoint x="626" y="140" as="targetPoint" />
          </mxGeometry>
        </mxCell>
        <mxCell id="UArxhUXp2m88e8XGttfS-28" value="" style="ellipse;whiteSpace=wrap;html=1;aspect=fixed;fillColor=#000000;" vertex="1" parent="1">
          <mxGeometry x="497" y="79" width="10" height="10" as="geometry" />
        </mxCell>
        <mxCell id="UArxhUXp2m88e8XGttfS-29" value="" style="ellipse;whiteSpace=wrap;html=1;aspect=fixed;fillColor=#000000;" vertex="1" parent="1">
          <mxGeometry x="580" y="79" width="10" height="10" as="geometry" />
        </mxCell>
        <mxCell id="UArxhUXp2m88e8XGttfS-30" value="" style="ellipse;whiteSpace=wrap;html=1;aspect=fixed;fillColor=#000000;" vertex="1" parent="1">
          <mxGeometry x="520" y="179" width="10" height="10" as="geometry" />
        </mxCell>
        <mxCell id="UArxhUXp2m88e8XGttfS-31" value="" style="endArrow=classic;html=1;rounded=0;strokeWidth=1;exitX=1;exitY=0;exitDx=0;exitDy=0;entryX=0;entryY=1;entryDx=0;entryDy=0;" edge="1" parent="1" source="UArxhUXp2m88e8XGttfS-30" target="UArxhUXp2m88e8XGttfS-29">
          <mxGeometry width="50" height="50" relative="1" as="geometry">
            <mxPoint x="460" y="150" as="sourcePoint" />
            <mxPoint x="509" y="242" as="targetPoint" />
          </mxGeometry>
        </mxCell>
        <mxCell id="UArxhUXp2m88e8XGttfS-32" value="&lt;b&gt;e&lt;sub&gt;01&lt;/sub&gt;&lt;/b&gt;" style="text;html=1;align=center;verticalAlign=middle;whiteSpace=wrap;rounded=0;fontSize=19;" vertex="1" parent="1">
          <mxGeometry x="234" y="44" width="60" height="30" as="geometry" />
        </mxCell>
        <mxCell id="UArxhUXp2m88e8XGttfS-33" value="&lt;b&gt;e&lt;sub&gt;02&lt;/sub&gt;&lt;/b&gt;" style="text;html=1;align=center;verticalAlign=middle;whiteSpace=wrap;rounded=0;fontSize=19;" vertex="1" parent="1">
          <mxGeometry x="294" y="44" width="60" height="30" as="geometry" />
        </mxCell>
        <mxCell id="UArxhUXp2m88e8XGttfS-34" value="&lt;b&gt;e&lt;sub&gt;03&lt;/sub&gt;&lt;/b&gt;" style="text;html=1;align=center;verticalAlign=middle;whiteSpace=wrap;rounded=0;fontSize=19;" vertex="1" parent="1">
          <mxGeometry x="377" y="44" width="60" height="30" as="geometry" />
        </mxCell>
        <mxCell id="UArxhUXp2m88e8XGttfS-35" value="&lt;b&gt;e&lt;sub&gt;04&lt;/sub&gt;&lt;/b&gt;" style="text;html=1;align=center;verticalAlign=middle;whiteSpace=wrap;rounded=0;fontSize=19;" vertex="1" parent="1">
          <mxGeometry x="472" y="44" width="60" height="30" as="geometry" />
        </mxCell>
        <mxCell id="UArxhUXp2m88e8XGttfS-36" value="&lt;b&gt;e&lt;sub&gt;05&lt;/sub&gt;&lt;/b&gt;" style="text;html=1;align=center;verticalAlign=middle;whiteSpace=wrap;rounded=0;fontSize=19;" vertex="1" parent="1">
          <mxGeometry x="555" y="44" width="60" height="30" as="geometry" />
        </mxCell>
        <mxCell id="UArxhUXp2m88e8XGttfS-37" value="&lt;b&gt;e&lt;sub&gt;11&lt;/sub&gt;&lt;/b&gt;" style="text;html=1;align=center;verticalAlign=middle;whiteSpace=wrap;rounded=0;fontSize=19;" vertex="1" parent="1">
          <mxGeometry x="256" y="200" width="60" height="30" as="geometry" />
        </mxCell>
        <mxCell id="UArxhUXp2m88e8XGttfS-38" value="&lt;b&gt;e&lt;sub&gt;12&lt;/sub&gt;&lt;/b&gt;" style="text;html=1;align=center;verticalAlign=middle;whiteSpace=wrap;rounded=0;fontSize=19;" vertex="1" parent="1">
          <mxGeometry x="345" y="200" width="60" height="30" as="geometry" />
        </mxCell>
        <mxCell id="UArxhUXp2m88e8XGttfS-39" value="&lt;b&gt;e&lt;sub&gt;13&lt;/sub&gt;&lt;/b&gt;" style="text;html=1;align=center;verticalAlign=middle;whiteSpace=wrap;rounded=0;fontSize=19;" vertex="1" parent="1">
          <mxGeometry x="495" y="200" width="60" height="30" as="geometry" />
        </mxCell>
      </root>
    </mxGraphModel>
  </diagram>
</mxfile>
